<svg width="13" height="9" viewBox="0 0 13 9" fill="none" xmlns="http://www.w3.org/2000/svg">
<path d="M5.96478 8.7408C6.02441 8.82074 6.10421 8.8861 6.19729 8.93125C6.29038 8.97641 6.39396 9 6.49912 9C6.60428 9 6.70786 8.97641 6.80094 8.93125C6.89403 8.8861 6.97382 8.82074 7.03346 8.7408L12.8839 0.941336C12.9516 0.851376 12.9913 0.746008 12.9987 0.63668C13.0061 0.527352 12.9809 0.418245 12.9258 0.321214C12.8708 0.224183 12.7879 0.142939 12.6863 0.086309C12.5847 0.0296788 12.4683 -0.000171795 12.3496 7.43741e-07H0.648661C0.53025 0.000452158 0.414212 0.0306866 0.313027 0.0874525C0.211842 0.144218 0.129337 0.225368 0.0743855 0.322174C0.019434 0.418981 -0.00588502 0.527781 0.00115111 0.636876C0.00818723 0.74597 0.0473123 0.851229 0.114319 0.941336L5.96478 8.7408Z" fill="#00069F"/>
</svg>
