<svg width="23" height="34" viewBox="0 0 23 34" fill="none" xmlns="http://www.w3.org/2000/svg">
<path d="M5.19458e-06 2.43189C-0.00149401 2.99911 0.265596 3.54881 0.754911 3.98557L15.4592 16.9976L1.28007 30.0339C1.00743 30.2822 0.803824 30.568 0.680966 30.8747C0.558107 31.1814 0.518414 31.503 0.564165 31.8211C0.609917 32.1392 0.740208 32.4475 0.947558 32.7282C1.15491 33.0089 1.43522 33.2565 1.77239 33.4569C2.10812 33.6585 2.49442 33.8091 2.9091 33.9C3.32377 33.9909 3.75863 34.0202 4.18869 33.9864C4.61876 33.9525 5.03554 33.8562 5.41508 33.7028C5.79462 33.5494 6.12944 33.3421 6.4003 33.0927L22.2533 18.527C22.7361 18.0926 23 17.5478 23 16.9855C23 16.4232 22.7361 15.8783 22.2533 15.4439L5.84233 0.878219C5.56679 0.632404 5.22839 0.429202 4.84652 0.280261C4.46464 0.13132 4.04679 0.0395652 3.6169 0.0102492C3.18701 -0.0190667 2.75352 0.0146399 2.34126 0.109424C1.92901 0.204207 1.54608 0.358214 1.21442 0.562625C0.837907 0.788524 0.533733 1.07331 0.323755 1.39652C0.113777 1.71972 0.00321146 2.07332 5.19458e-06 2.43189Z" fill="white"/>
</svg>
