<svg width="12" height="18" viewBox="0 0 12 18" fill="none" xmlns="http://www.w3.org/2000/svg">
<path d="M11.6544 9.74108C11.761 9.6585 11.8481 9.54802 11.9083 9.41913C11.9685 9.29024 12 9.14682 12 9.00122C12 8.85562 11.9685 8.71219 11.9083 8.58331C11.8481 8.45442 11.761 8.34393 11.6544 8.26136L1.25511 0.160728C1.13517 0.0669631 0.994676 0.0119762 0.848906 0.00174328C0.703135 -0.00848964 0.557659 0.0264225 0.428285 0.102686C0.29891 0.178949 0.190585 0.293646 0.115078 0.434317C0.0395709 0.574987 -0.000229814 0.736252 2.44215e-07 0.900585L9.52395e-07 17.1019C0.000602845 17.2658 0.0409154 17.4265 0.116603 17.5666C0.192291 17.7067 0.300491 17.8209 0.429566 17.897C0.558641 17.9731 0.703709 18.0081 0.849167 17.9984C0.994626 17.9887 1.13497 17.9345 1.25511 17.8417L11.6544 9.74108Z" fill="white"/>
</svg>
