<svg width="23" height="34" viewBox="0 0 23 34" fill="none" xmlns="http://www.w3.org/2000/svg">
<path d="M23 2.43189C23.0015 2.99911 22.7344 3.54881 22.2451 3.98557L7.54082 16.9976L21.7199 30.0339C21.9926 30.2822 22.1962 30.568 22.319 30.8747C22.4419 31.1814 22.4816 31.503 22.4358 31.8211C22.3901 32.1392 22.2598 32.4475 22.0524 32.7282C21.8451 33.0089 21.5648 33.2565 21.2276 33.4569C20.8919 33.6585 20.5056 33.8091 20.0909 33.9C19.6762 33.9909 19.2414 34.0202 18.8113 33.9864C18.3812 33.9525 17.9645 33.8562 17.5849 33.7028C17.2054 33.5494 16.8706 33.3421 16.5997 33.0927L0.746661 18.527C0.263909 18.0926 -7.1915e-07 17.5478 -7.43728e-07 16.9855C-7.68307e-07 16.4232 0.263909 15.8783 0.746661 15.4439L17.1577 0.878219C17.4332 0.632404 17.7716 0.429202 18.1535 0.280261C18.5354 0.13132 18.9532 0.0395652 19.3831 0.0102492C19.813 -0.0190667 20.2465 0.0146399 20.6587 0.109424C21.071 0.204207 21.4539 0.358214 21.7856 0.562625C22.1621 0.788524 22.4663 1.07331 22.6762 1.39652C22.8862 1.71972 22.9968 2.07332 23 2.43189Z" fill="white"/>
</svg>
