<svg width="24" height="24" viewBox="0 0 24 24" fill="none" xmlns="http://www.w3.org/2000/svg">
<path d="M22.2857 14.5714V17.1429C22.2857 18.6518 21.7143 19.9286 20.5714 20.9732V23.5714C20.5714 23.6964 20.5312 23.7991 20.4509 23.8795C20.3705 23.9598 20.2679 24 20.1429 24H19.2857C19.1607 24 19.058 23.9598 18.9777 23.8795C18.8973 23.7991 18.8571 23.6964 18.8571 23.5714V21.9911C18.2946 22.1875 17.7232 22.2857 17.1429 22.2857H6.85714C6.27679 22.2857 5.70536 22.1875 5.14286 21.9911V23.4643C5.14286 23.6161 5.10045 23.7433 5.01562 23.846C4.9308 23.9487 4.83036 24 4.71429 24H3.85714C3.74107 24 3.64062 23.9487 3.5558 23.846C3.47098 23.7433 3.42857 23.6161 3.42857 23.4643V20.9732C2.28571 19.9286 1.71429 18.6518 1.71429 17.1429V14.5714H22.2857ZM9.42857 9C9.42857 9.125 9.38839 9.22768 9.30804 9.30804C9.22768 9.38839 9.125 9.42857 9 9.42857C8.875 9.42857 8.77232 9.38839 8.69196 9.30804C8.61161 9.22768 8.57143 9.125 8.57143 9C8.57143 8.875 8.61161 8.77232 8.69196 8.69196C8.77232 8.61161 8.875 8.57143 9 8.57143C9.125 8.57143 9.22768 8.61161 9.30804 8.69196C9.38839 8.77232 9.42857 8.875 9.42857 9ZM10.2857 8.14286C10.2857 8.26786 10.2455 8.37054 10.1652 8.45089C10.0848 8.53125 9.98214 8.57143 9.85714 8.57143C9.73214 8.57143 9.62946 8.53125 9.54911 8.45089C9.46875 8.37054 9.42857 8.26786 9.42857 8.14286C9.42857 8.01786 9.46875 7.91518 9.54911 7.83482C9.62946 7.75446 9.73214 7.71429 9.85714 7.71429C9.98214 7.71429 10.0848 7.75446 10.1652 7.83482C10.2455 7.91518 10.2857 8.01786 10.2857 8.14286ZM9.42857 7.28571C9.42857 7.41071 9.38839 7.51339 9.30804 7.59375C9.22768 7.67411 9.125 7.71429 9 7.71429C8.875 7.71429 8.77232 7.67411 8.69196 7.59375C8.61161 7.51339 8.57143 7.41071 8.57143 7.28571C8.57143 7.16071 8.61161 7.05804 8.69196 6.97768C8.77232 6.89732 8.875 6.85714 9 6.85714C9.125 6.85714 9.22768 6.89732 9.30804 6.97768C9.38839 7.05804 9.42857 7.16071 9.42857 7.28571ZM11.1429 7.28571C11.1429 7.41071 11.1027 7.51339 11.0223 7.59375C10.942 7.67411 10.8393 7.71429 10.7143 7.71429C10.5893 7.71429 10.4866 7.67411 10.4062 7.59375C10.3259 7.51339 10.2857 7.41071 10.2857 7.28571C10.2857 7.16071 10.3259 7.05804 10.4062 6.97768C10.4866 6.89732 10.5893 6.85714 10.7143 6.85714C10.8393 6.85714 10.942 6.89732 11.0223 6.97768C11.1027 7.05804 11.1429 7.16071 11.1429 7.28571ZM10.2857 6.42857C10.2857 6.55357 10.2455 6.65625 10.1652 6.73661C10.0848 6.81696 9.98214 6.85714 9.85714 6.85714C9.73214 6.85714 9.62946 6.81696 9.54911 6.73661C9.46875 6.65625 9.42857 6.55357 9.42857 6.42857C9.42857 6.30357 9.46875 6.20089 9.54911 6.12054C9.62946 6.04018 9.73214 6 9.85714 6C9.98214 6 10.0848 6.04018 10.1652 6.12054C10.2455 6.20089 10.2857 6.30357 10.2857 6.42857ZM9.42857 5.57143C9.42857 5.69643 9.38839 5.79911 9.30804 5.87946C9.22768 5.95982 9.125 6 9 6C8.875 6 8.77232 5.95982 8.69196 5.87946C8.61161 5.79911 8.57143 5.69643 8.57143 5.57143C8.57143 5.44643 8.61161 5.34375 8.69196 5.26339C8.77232 5.18304 8.875 5.14286 9 5.14286C9.125 5.14286 9.22768 5.18304 9.30804 5.26339C9.38839 5.34375 9.42857 5.44643 9.42857 5.57143ZM24 12.4286V13.2857C24 13.4107 23.9598 13.5134 23.8795 13.5938C23.7991 13.6741 23.6964 13.7143 23.5714 13.7143H0.428571C0.303571 13.7143 0.200893 13.6741 0.120536 13.5938C0.0401786 13.5134 0 13.4107 0 13.2857V12.4286C0 12.3036 0.0401786 12.2009 0.120536 12.1205C0.200893 12.0402 0.303571 12 0.428571 12H1.71429V3.42857C1.71429 2.48214 2.04911 1.67411 2.71875 1.00446C3.38839 0.334821 4.19643 0 5.14286 0C6.10714 0 6.92857 0.348214 7.60714 1.04464C8.01786 0.875 8.45536 0.821429 8.91964 0.883929C9.38393 0.946429 9.79911 1.12054 10.1652 1.40625L10.4598 1.11161C10.558 1.01339 10.6562 1.01339 10.7545 1.11161L11.317 1.67411C11.4152 1.77232 11.4152 1.87054 11.317 1.96875L7.11161 6.17411C7.01339 6.27232 6.91518 6.27232 6.81696 6.17411L6.25446 5.61161C6.15625 5.51339 6.15625 5.41518 6.25446 5.31696L6.54911 5.02232C6.22768 4.61161 6.04688 4.14732 6.0067 3.62946C5.96652 3.11161 6.07143 2.62946 6.32143 2.18304C5.99107 1.87054 5.59821 1.71429 5.14286 1.71429C4.66964 1.71429 4.26562 1.8817 3.9308 2.21652C3.59598 2.55134 3.42857 2.95536 3.42857 3.42857V12H23.5714C23.6964 12 23.7991 12.0402 23.8795 12.1205C23.9598 12.2009 24 12.3036 24 12.4286ZM12 6.42857C12 6.55357 11.9598 6.65625 11.8795 6.73661C11.7991 6.81696 11.6964 6.85714 11.5714 6.85714C11.4464 6.85714 11.3438 6.81696 11.2634 6.73661C11.183 6.65625 11.1429 6.55357 11.1429 6.42857C11.1429 6.30357 11.183 6.20089 11.2634 6.12054C11.3438 6.04018 11.4464 6 11.5714 6C11.6964 6 11.7991 6.04018 11.8795 6.12054C11.9598 6.20089 12 6.30357 12 6.42857ZM11.1429 5.57143C11.1429 5.69643 11.1027 5.79911 11.0223 5.87946C10.942 5.95982 10.8393 6 10.7143 6C10.5893 6 10.4866 5.95982 10.4062 5.87946C10.3259 5.79911 10.2857 5.69643 10.2857 5.57143C10.2857 5.44643 10.3259 5.34375 10.4062 5.26339C10.4866 5.18304 10.5893 5.14286 10.7143 5.14286C10.8393 5.14286 10.942 5.18304 11.0223 5.26339C11.1027 5.34375 11.1429 5.44643 11.1429 5.57143ZM10.2857 4.71429C10.2857 4.83929 10.2455 4.94196 10.1652 5.02232C10.0848 5.10268 9.98214 5.14286 9.85714 5.14286C9.73214 5.14286 9.62946 5.10268 9.54911 5.02232C9.46875 4.94196 9.42857 4.83929 9.42857 4.71429C9.42857 4.58929 9.46875 4.48661 9.54911 4.40625C9.62946 4.32589 9.73214 4.28571 9.85714 4.28571C9.98214 4.28571 10.0848 4.32589 10.1652 4.40625C10.2455 4.48661 10.2857 4.58929 10.2857 4.71429ZM12.8571 5.57143C12.8571 5.69643 12.817 5.79911 12.7366 5.87946C12.6562 5.95982 12.5536 6 12.4286 6C12.3036 6 12.2009 5.95982 12.1205 5.87946C12.0402 5.79911 12 5.69643 12 5.57143C12 5.44643 12.0402 5.34375 12.1205 5.26339C12.2009 5.18304 12.3036 5.14286 12.4286 5.14286C12.5536 5.14286 12.6562 5.18304 12.7366 5.26339C12.817 5.34375 12.8571 5.44643 12.8571 5.57143ZM12 4.71429C12 4.83929 11.9598 4.94196 11.8795 5.02232C11.7991 5.10268 11.6964 5.14286 11.5714 5.14286C11.4464 5.14286 11.3438 5.10268 11.2634 5.02232C11.183 4.94196 11.1429 4.83929 11.1429 4.71429C11.1429 4.58929 11.183 4.48661 11.2634 4.40625C11.3438 4.32589 11.4464 4.28571 11.5714 4.28571C11.6964 4.28571 11.7991 4.32589 11.8795 4.40625C11.9598 4.48661 12 4.58929 12 4.71429ZM11.1429 3.85714C11.1429 3.98214 11.1027 4.08482 11.0223 4.16518C10.942 4.24554 10.8393 4.28571 10.7143 4.28571C10.5893 4.28571 10.4866 4.24554 10.4062 4.16518C10.3259 4.08482 10.2857 3.98214 10.2857 3.85714C10.2857 3.73214 10.3259 3.62946 10.4062 3.54911C10.4866 3.46875 10.5893 3.42857 10.7143 3.42857C10.8393 3.42857 10.942 3.46875 11.0223 3.54911C11.1027 3.62946 11.1429 3.73214 11.1429 3.85714ZM13.7143 4.71429C13.7143 4.83929 13.6741 4.94196 13.5938 5.02232C13.5134 5.10268 13.4107 5.14286 13.2857 5.14286C13.1607 5.14286 13.058 5.10268 12.9777 5.02232C12.8973 4.94196 12.8571 4.83929 12.8571 4.71429C12.8571 4.58929 12.8973 4.48661 12.9777 4.40625C13.058 4.32589 13.1607 4.28571 13.2857 4.28571C13.4107 4.28571 13.5134 4.32589 13.5938 4.40625C13.6741 4.48661 13.7143 4.58929 13.7143 4.71429ZM12.8571 3.85714C12.8571 3.98214 12.817 4.08482 12.7366 4.16518C12.6562 4.24554 12.5536 4.28571 12.4286 4.28571C12.3036 4.28571 12.2009 4.24554 12.1205 4.16518C12.0402 4.08482 12 3.98214 12 3.85714C12 3.73214 12.0402 3.62946 12.1205 3.54911C12.2009 3.46875 12.3036 3.42857 12.4286 3.42857C12.5536 3.42857 12.6562 3.46875 12.7366 3.54911C12.817 3.62946 12.8571 3.73214 12.8571 3.85714ZM14.5714 3.85714C14.5714 3.98214 14.5312 4.08482 14.4509 4.16518C14.3705 4.24554 14.2679 4.28571 14.1429 4.28571C14.0179 4.28571 13.9152 4.24554 13.8348 4.16518C13.7545 4.08482 13.7143 3.98214 13.7143 3.85714C13.7143 3.73214 13.7545 3.62946 13.8348 3.54911C13.9152 3.46875 14.0179 3.42857 14.1429 3.42857C14.2679 3.42857 14.3705 3.46875 14.4509 3.54911C14.5312 3.62946 14.5714 3.73214 14.5714 3.85714Z" fill="black"/>
</svg>
