<svg width="20" height="23" viewBox="0 0 20 23" fill="none" xmlns="http://www.w3.org/2000/svg">
<path fill-rule="evenodd" clip-rule="evenodd" d="M1.42857 2.85714C1.42857 2.09938 1.72959 1.37266 2.26541 0.836838C2.80123 0.301019 3.52795 0 4.28571 0H15.7143C16.472 0 17.1988 0.301019 17.7346 0.836838C18.2704 1.37266 18.5714 2.09938 18.5714 2.85714V20C18.9503 20 19.3137 20.1505 19.5816 20.4184C19.8495 20.6863 20 21.0497 20 21.4286C20 21.8075 19.8495 22.1708 19.5816 22.4387C19.3137 22.7066 18.9503 22.8571 18.5714 22.8571H14.2857C13.9068 22.8571 13.5435 22.7066 13.2756 22.4387C13.0077 22.1708 12.8571 21.8075 12.8571 21.4286V18.5714C12.8571 18.1925 12.7066 17.8292 12.4387 17.5613C12.1708 17.2934 11.8075 17.1429 11.4286 17.1429H8.57143C8.19255 17.1429 7.82919 17.2934 7.56128 17.5613C7.29337 17.8292 7.14286 18.1925 7.14286 18.5714V21.4286C7.14286 21.8075 6.99235 22.1708 6.72444 22.4387C6.45653 22.7066 6.09317 22.8571 5.71429 22.8571H1.42857C1.04969 22.8571 0.686328 22.7066 0.418419 22.4387C0.15051 22.1708 0 21.8075 0 21.4286C0 21.0497 0.15051 20.6863 0.418419 20.4184C0.686328 20.1505 1.04969 20 1.42857 20V2.85714ZM5.71429 4.28571H8.57143V7.14286H5.71429V4.28571ZM8.57143 10H5.71429V12.8571H8.57143V10ZM11.4286 4.28571H14.2857V7.14286H11.4286V4.28571ZM14.2857 10H11.4286V12.8571H14.2857V10Z" fill="white"/>
</svg>
