<svg width="18" height="19" class="icon-search" viewBox="0 0 25 24" xmlns="http://www.w3.org/2000/svg">
<path d="M0.517408 11.8034L11.8763 0.262836C11.958 0.179517 12.0552 0.113416 12.1621 0.0683154C12.2691 0.0232147 12.3837 0 12.4995 0C12.6153 0 12.7299 0.0232147 12.8368 0.0683154C12.9438 0.113416 13.0409 0.179517 13.1227 0.262836L24.4816 11.8034C24.8125 12.1398 25 12.5969 25 13.0735C25 14.0633 24.2085 14.8679 23.2351 14.8679H22.0383V23.1028C22.0383 23.5991 21.6439 24 21.1558 24H14.2644V17.7194H11.1758V24H3.84316C3.35505 24 2.9607 23.5991 2.9607 23.1028V14.8679H1.76387C1.29507 14.8679 0.845572 14.6801 0.51465 14.3408C-0.172009 13.6399 -0.17201 12.5043 0.517408 11.8034Z" fill="#00069F"/>
</svg>
