<svg width="49" height="45" viewBox="0 0 49 45" fill="none" xmlns="http://www.w3.org/2000/svg">
<path d="M48.4467 22.2836C48.4467 23.8454 47.1847 25.0688 45.7543 25.0688H43.0619L43.1208 38.9596C43.1208 39.2026 43.104 39.4282 43.0787 39.6624V41.068C43.0787 42.9855 41.5726 44.5386 39.7132 44.5386H38.367C38.2744 44.5386 38.1819 44.4605 38.0893 44.5299C37.9715 44.4605 37.8537 44.5386 37.7359 44.5386H32.9821C31.1227 44.5386 29.6166 42.9855 29.6166 41.068V33.4328C29.6166 31.8971 28.4134 30.6563 26.9242 30.6563H21.5394C20.0501 30.6563 18.8469 31.8971 18.8469 33.4328V41.068C18.8469 42.9855 17.3409 44.5386 15.4814 44.5386H10.7781C10.6519 44.5386 10.5257 44.5299 10.3995 44.5212C10.2985 44.5299 10.1975 44.5386 10.0966 44.5386H8.75036C6.89175 44.5386 5.38484 42.9855 5.38484 41.068V31.3505C5.38484 31.2724 5.38736 31.1856 5.39241 31.1075V25.0688H2.69663C1.17962 25.0688 0 23.8454 0 22.2836C0 21.5028 0.252751 20.8086 0.842223 20.2013L22.4144 0.810977C23.0034 0.202416 23.6765 0.115479 24.2654 0.115479C24.8544 0.115479 25.5275 0.289353 26.0407 0.72404L47.5212 20.2013C48.1943 20.8086 48.5393 21.5028 48.4467 22.2836Z" fill="white"/>
<path d="M34.5433 12.5057C34.6906 12.669 34.8036 12.8571 34.8821 13.0579C34.9558 13.2588 34.9558 13.4784 35 13.7087V18.8564C35 19.8045 34.2978 20.5705 33.4286 20.5705C32.5594 20.5705 31.8572 19.8045 31.8572 18.8564V17.8547L26.6813 23.4952C26.1018 24.1326 25.1737 24.1701 24.55 23.5863L20.0273 19.3974L15.5939 23.5863C14.9354 24.2023 13.9429 24.1166 13.3782 23.3988C12.8135 22.681 12.8901 21.599 13.5486 20.983L19.05 15.8407C19.6393 15.2905 20.5036 15.2905 21.0929 15.8407L25.488 19.9492L29.6326 15.4282H28.7143C27.8451 15.4282 27.1429 14.6606 27.1429 13.7141C27.1429 12.7676 27.8451 12 28.7143 12H33.3844C33.8607 12 34.2536 12.1904 34.5384 12.4984L34.5433 12.5057Z" fill="#000BFF"/>
</svg>
