<svg width="34" height="34" viewBox="0 0 34 34" fill="none" xmlns="http://www.w3.org/2000/svg">
<rect width="34" height="34" rx="17" fill="white"/>
<path d="M27.0325 8.93407C26.1005 8.43006 24.6599 9.26933 23.8119 10.7814L22.2021 13.469C21.6084 14.5603 21.6935 15.9047 22.4564 16.996L22.5415 17.0804C23.1716 17.9034 23.8506 18.6886 24.5747 19.4317C24.745 19.6004 24.9142 19.8513 24.9982 20.1877C25.2525 21.1113 24.7439 22.1193 23.7267 22.3702C22.7958 22.6234 21.7787 22.1193 21.5244 21.1113C21.4392 20.8593 21.4392 20.6073 21.4392 20.4397C21.5244 20.0201 21.3552 19.4317 20.7615 18.76C20.1689 18.1716 19.0666 19.3473 18.6432 20.5229V20.6073C18.3037 21.783 18.0495 22.8754 18.1346 22.9586C18.1346 23.043 18.2197 23.043 18.2197 23.1274C18.7283 24.1343 18.3889 25.3099 17.3717 25.8139C16.3546 26.3179 15.1694 25.9827 14.6597 24.9747C14.1511 23.9666 14.4894 22.791 15.5077 22.287C15.5917 22.287 15.5917 22.2026 15.6768 22.2026C15.762 22.2026 15.9311 21.6986 16.1854 21.0269C16.3557 20.4397 16.4397 20.1877 16.5248 19.9357C16.6088 19.5993 16.7791 18.76 16.694 18.4236C16.6088 18.004 16.1854 18.004 15.762 18.2549C15.5077 18.4236 14.9991 18.8433 14.8299 19.012C14.4204 19.3508 14.1001 19.7833 13.8968 20.2721C13.7844 20.4867 13.6418 20.6844 13.4733 20.8593C13.0975 21.1479 12.6243 21.2826 12.1512 21.2357C11.6781 21.1888 11.2412 20.9639 10.9304 20.6073C10.6394 20.2347 10.5037 19.7657 10.5512 19.2968C10.5987 18.828 10.8259 18.3951 11.1859 18.0873C11.4402 17.9196 11.6944 17.752 11.9476 17.752C12.3722 17.6676 13.8968 16.744 14.8299 16.0723C14.9991 15.988 15.2534 15.736 15.3385 15.6527C15.5917 15.3163 15.3385 15.0643 15.0842 15.0643C14.3214 15.1487 13.4733 15.2331 13.3042 15.484C13.2191 15.5683 13.1339 15.736 12.9648 15.8203C12.287 16.3244 11.2699 16.1567 10.7624 15.484C10.2527 14.8123 10.4219 13.8043 11.1007 13.3014C11.355 13.0483 11.7784 12.9639 12.0327 12.9639C12.6265 12.9639 14.1511 13.3014 15.3374 13.0483L15.6768 12.965C16.9483 12.713 18.474 11.6206 19.0666 10.5294C19.0666 10.5294 19.6603 9.52133 20.3381 8.26131C21.1009 7.00128 21.0158 5.57475 20.2529 5.15399L18.8123 4.31473C18.0494 3.89509 16.9483 3.89509 16.1854 4.31473L6.35433 9.85772C5.59372 10.2773 5 11.2854 5 12.1246V22.8742C5 23.7146 5.59372 24.7227 6.3566 25.1423L16.1865 30.6853C16.9494 31.1049 18.1357 31.1049 18.8135 30.6853L28.6445 25.1423C29.4063 24.7227 30 23.7146 30 22.8754V12.1246C30 11.2854 29.4063 10.2773 28.6445 9.85772C28.6445 9.85772 27.9645 9.43808 27.0325 8.93407Z" fill="#0208A0"/>
</svg>
