<svg width="20" height="17" viewBox="0 0 20 17" fill="none" xmlns="http://www.w3.org/2000/svg">
<path d="M20 4.21625V13.125C20 13.9538 19.6708 14.7487 19.0847 15.3347C18.4987 15.9208 17.7038 16.25 16.875 16.25H3.125C2.2962 16.25 1.50134 15.9208 0.915291 15.3347C0.32924 14.7487 0 13.9538 0 13.125V4.21625L9.6825 9.91375C9.77869 9.97048 9.88833 10.0004 10 10.0004C10.1117 10.0004 10.2213 9.97048 10.3175 9.91375L20 4.21625ZM16.875 3.86908e-08C17.6439 -0.000120895 18.3859 0.283258 18.959 0.795925C19.5321 1.30859 19.8961 2.01455 19.9813 2.77875L10 8.65L0.0187501 2.77875C0.103948 2.01455 0.467905 1.30859 1.04099 0.795925C1.61408 0.283258 2.35607 -0.000120895 3.125 3.86908e-08H16.875Z" fill="white"/>
</svg>
