<svg width="49" height="45" viewBox="0 0 49 45" fill="none" xmlns="http://www.w3.org/2000/svg">
<path d="M48.4467 22.2834C48.4467 23.8451 47.1847 25.0685 45.7543 25.0685H43.0619L43.1208 38.9594C43.1208 39.2023 43.104 39.4279 43.0787 39.6622V41.0678C43.0787 42.9852 41.5726 44.5383 39.7132 44.5383H38.367C38.2744 44.5383 38.1819 44.4602 38.0893 44.5296C37.9715 44.4602 37.8537 44.5383 37.7359 44.5383H32.9821C31.1227 44.5383 29.6166 42.9852 29.6166 41.0678V33.4325C29.6166 31.8968 28.4134 30.6561 26.9242 30.6561H21.5394C20.0501 30.6561 18.8469 31.8968 18.8469 33.4325V41.0678C18.8469 42.9852 17.3409 44.5383 15.4814 44.5383H10.7781C10.6519 44.5383 10.5257 44.5296 10.3995 44.521C10.2985 44.5296 10.1975 44.5383 10.0966 44.5383H8.75036C6.89175 44.5383 5.38484 42.9852 5.38484 41.0678V31.3502C5.38484 31.2721 5.38736 31.1854 5.39241 31.1073V25.0685H2.69663C1.17962 25.0685 0 23.8451 0 22.2834C0 21.5025 0.252751 20.8084 0.842223 20.2011L22.4144 0.810733C23.0034 0.202172 23.6765 0.115234 24.2654 0.115234C24.8544 0.115234 25.5275 0.289109 26.0407 0.723796L47.5212 20.2011C48.1943 20.8084 48.5393 21.5025 48.4467 22.2834Z" fill="#000BFF"/>
</svg>
