<svg width="49" height="45" viewBox="0 0 49 45" fill="none" xmlns="http://www.w3.org/2000/svg">
<path d="M48.4467 22.2836C48.4467 23.8454 47.1847 25.0688 45.7543 25.0688H43.0619L43.1208 38.9596C43.1208 39.2026 43.104 39.4282 43.0787 39.6624V41.068C43.0787 42.9855 41.5726 44.5386 39.7132 44.5386H38.367C38.2744 44.5386 38.1819 44.4605 38.0893 44.5299C37.9715 44.4605 37.8537 44.5386 37.7359 44.5386H32.9821C31.1227 44.5386 29.6166 42.9855 29.6166 41.068V33.4328C29.6166 31.8971 28.4134 30.6563 26.9242 30.6563H21.5394C20.0501 30.6563 18.8469 31.8971 18.8469 33.4328V41.068C18.8469 42.9855 17.3409 44.5386 15.4814 44.5386H10.7781C10.6519 44.5386 10.5257 44.5299 10.3995 44.5212C10.2985 44.5299 10.1975 44.5386 10.0966 44.5386H8.75036C6.89175 44.5386 5.38484 42.9855 5.38484 41.068V31.3505C5.38484 31.2724 5.38736 31.1856 5.39241 31.1075V25.0688H2.69663C1.17962 25.0688 0 23.8454 0 22.2836C0 21.5028 0.252751 20.8086 0.842223 20.2013L22.4144 0.810977C23.0034 0.202416 23.6765 0.115479 24.2654 0.115479C24.8544 0.115479 25.5275 0.289353 26.0407 0.72404L47.5212 20.2013C48.1943 20.8086 48.5393 21.5028 48.4467 22.2836Z" fill="#232BFC"/>
<path d="M17.5294 9.5C17.5294 8.83696 17.7773 8.20107 18.2186 7.73223C18.6598 7.26339 19.2583 7 19.8824 7H28.1176C28.7417 7 29.3402 7.26339 29.7814 7.73223C30.2227 8.20107 30.4706 8.83696 30.4706 9.5V18.25H34V20.75C34 21.7446 33.6282 22.6984 32.9663 23.4017C32.3044 24.1049 31.4066 24.5 30.4706 24.5H25.7647V21.375C25.7647 20.5462 25.4548 19.7513 24.9033 19.1653C24.3517 18.5792 23.6036 18.25 22.8235 18.25H17.5294V9.5ZM30.4706 23.25C31.0946 23.25 31.6931 22.9866 32.1344 22.5178C32.5756 22.0489 32.8235 21.413 32.8235 20.75V19.5H30.4706V23.25ZM21.6471 10.75C21.491 10.75 21.3414 10.8158 21.2311 10.9331C21.1208 11.0503 21.0588 11.2092 21.0588 11.375C21.0588 11.5408 21.1208 11.6997 21.2311 11.8169C21.3414 11.9342 21.491 12 21.6471 12H26.3529C26.509 12 26.6586 11.9342 26.7689 11.8169C26.8792 11.6997 26.9412 11.5408 26.9412 11.375C26.9412 11.2092 26.8792 11.0503 26.7689 10.9331C26.6586 10.8158 26.509 10.75 26.3529 10.75H21.6471ZM21.6471 13.25C21.491 13.25 21.3414 13.3158 21.2311 13.4331C21.1208 13.5503 21.0588 13.7092 21.0588 13.875C21.0588 14.0408 21.1208 14.1997 21.2311 14.3169C21.3414 14.4342 21.491 14.5 21.6471 14.5H26.3529C26.509 14.5 26.6586 14.4342 26.7689 14.3169C26.8792 14.1997 26.9412 14.0408 26.9412 13.875C26.9412 13.7092 26.8792 13.5503 26.7689 13.4331C26.6586 13.3158 26.509 13.25 26.3529 13.25H21.6471ZM22.8235 19.5C23.2916 19.5 23.7404 19.6975 24.0714 20.0492C24.4023 20.4008 24.5882 20.8777 24.5882 21.375V25.125C24.5882 25.6223 24.4023 26.0992 24.0714 26.4508C23.7404 26.8025 23.2916 27 22.8235 27H15.7647C15.2967 27 14.8478 26.8025 14.5169 26.4508C14.1859 26.0992 14 25.6223 14 25.125V21.375C14 20.8777 14.1859 20.4008 14.5169 20.0492C14.8478 19.6975 15.2967 19.5 15.7647 19.5H22.8235ZM23.4118 25.125V23.875C22.9437 23.875 22.4949 24.0725 22.1639 24.4242C21.833 24.7758 21.6471 25.2527 21.6471 25.75H22.8235C22.8235 25.5842 22.8855 25.4253 22.9958 25.3081C23.1061 25.1908 23.2558 25.125 23.4118 25.125ZM23.4118 21.375C23.2558 21.375 23.1061 21.3092 22.9958 21.1919C22.8855 21.0747 22.8235 20.9158 22.8235 20.75H21.6471C21.6471 21.2473 21.833 21.7242 22.1639 22.0758C22.4949 22.4275 22.9437 22.625 23.4118 22.625V21.375ZM15.7647 20.75C15.7647 20.9158 15.7027 21.0747 15.5924 21.1919C15.4821 21.3092 15.3325 21.375 15.1765 21.375V22.625C15.6445 22.625 16.0934 22.4275 16.4243 22.0758C16.7553 21.7242 16.9412 21.2473 16.9412 20.75H15.7647ZM15.1765 25.125C15.3325 25.125 15.4821 25.1908 15.5924 25.3081C15.7027 25.4253 15.7647 25.5842 15.7647 25.75H16.9412C16.9412 25.2527 16.7553 24.7758 16.4243 24.4242C16.0934 24.0725 15.6445 23.875 15.1765 23.875V25.125ZM19.2941 21.375C18.8261 21.375 18.3772 21.5725 18.0463 21.9242C17.7153 22.2758 17.5294 22.7527 17.5294 23.25C17.5294 23.7473 17.7153 24.2242 18.0463 24.5758C18.3772 24.9275 18.8261 25.125 19.2941 25.125C19.7621 25.125 20.211 24.9275 20.542 24.5758C20.8729 24.2242 21.0588 23.7473 21.0588 23.25C21.0588 22.7527 20.8729 22.2758 20.542 21.9242C20.211 21.5725 19.7621 21.375 19.2941 21.375Z" fill="white"/>
</svg>
