<svg width="49" height="45" viewBox="0 0 49 45" fill="none" xmlns="http://www.w3.org/2000/svg">
<path d="M48.4467 22.2836C48.4467 23.8454 47.1847 25.0688 45.7543 25.0688H43.0619L43.1208 38.9596C43.1208 39.2026 43.104 39.4282 43.0787 39.6624V41.068C43.0787 42.9855 41.5726 44.5386 39.7132 44.5386H38.367C38.2744 44.5386 38.1819 44.4605 38.0893 44.5299C37.9715 44.4605 37.8537 44.5386 37.7359 44.5386H32.9821C31.1227 44.5386 29.6166 42.9855 29.6166 41.068V33.4328C29.6166 31.8971 28.4134 30.6563 26.9242 30.6563H21.5394C20.0501 30.6563 18.8469 31.8971 18.8469 33.4328V41.068C18.8469 42.9855 17.3409 44.5386 15.4814 44.5386H10.7781C10.6519 44.5386 10.5257 44.5299 10.3995 44.5212C10.2985 44.5299 10.1975 44.5386 10.0966 44.5386H8.75036C6.89175 44.5386 5.38484 42.9855 5.38484 41.068V31.3505C5.38484 31.2724 5.38736 31.1856 5.39241 31.1075V25.0688H2.69663C1.17962 25.0688 0 23.8454 0 22.2836C0 21.5028 0.252751 20.8087 0.842223 20.2013L22.4144 0.810977C23.0034 0.202416 23.6765 0.115479 24.2654 0.115479C24.8544 0.115479 25.5275 0.289353 26.0407 0.72404L47.5212 20.2013C48.1943 20.8087 48.5393 21.5028 48.4467 22.2836Z" fill="white"/>
<path d="M24.825 15.625C24.275 15.4875 23.725 15.2125 23.3125 14.8C22.9 14.6625 22.7625 14.25 22.7625 13.975C22.7625 13.7 22.9 13.2875 23.175 13.15C23.5875 12.875 24 12.6 24.4125 12.7375C25.2375 12.7375 25.925 13.15 26.3375 13.7L27.575 12.05C27.1625 11.6375 26.75 11.3625 26.3375 11.0875C25.925 10.8125 25.375 10.675 24.825 10.675V8.75H23.175V10.675C22.4875 10.8125 21.8 11.225 21.25 11.775C20.7 12.4625 20.2875 13.2875 20.425 14.1125C20.425 14.9375 20.7 15.7625 21.25 16.3125C21.9375 17 22.9 17.4125 23.725 17.825C24.1375 17.9625 24.6875 18.2375 25.1 18.5125C25.375 18.7875 25.5125 19.2 25.5125 19.6125C25.5125 20.025 25.375 20.4375 25.1 20.85C24.6875 21.2625 24.1375 21.4 23.725 21.4C23.175 21.4 22.4875 21.2625 22.075 20.85C21.6625 20.575 21.25 20.1625 20.975 19.75L19.6 21.2625C20.0125 21.8125 20.425 22.225 20.975 22.6375C21.6625 23.05 22.4875 23.4625 23.3125 23.4625V25.25H24.825V23.1875C25.65 23.05 26.3375 22.6375 26.8875 22.0875C27.575 21.4 27.9875 20.3 27.9875 19.3375C27.9875 18.5125 27.7125 17.55 27.025 17C26.3375 16.3125 25.65 15.9 24.825 15.625V15.625ZM24 6C17.95 6 13 10.95 13 17C13 23.05 17.95 28 24 28C30.05 28 35 23.05 35 17C35 10.95 30.05 6 24 6ZM24 26.4875C18.775 26.4875 14.5125 22.225 14.5125 17C14.5125 11.775 18.775 7.5125 24 7.5125C29.225 7.5125 33.4875 11.775 33.4875 17C33.4875 22.225 29.225 26.4875 24 26.4875V26.4875Z" fill="#000BFF"/>
</svg>
