<svg width="24" height="24" viewBox="0 0 24 24" fill="none" xmlns="http://www.w3.org/2000/svg">
<path d="M9.18745 6.4C9.36745 4.912 9.66746 3.592 10.0485 2.5328C10.368 1.6464 10.731 0.9824 11.0955 0.5552C11.46 0.128 11.766 0 12 0C12.234 0 12.54 0.128 12.9045 0.5552C13.269 0.9824 13.632 1.6464 13.9515 2.5328C14.334 3.592 14.634 4.912 14.8125 6.4H9.18745ZM8.64744 1.9584C8.84995 1.4 9.07795 0.8832 9.33445 0.4272C7.99545 0.871607 6.77199 1.64281 5.76118 2.6796C4.75038 3.71639 3.98005 4.99023 3.51135 6.4H7.67543C7.86443 4.72 8.20043 3.2016 8.64894 1.9584H8.64744ZM15.3526 1.9584C15.1651 1.42794 14.9353 0.91565 14.6655 0.4272C16.0046 0.871607 17.228 1.64281 18.2388 2.6796C19.2496 3.71639 20.0199 4.99023 20.4886 6.4H16.3246C16.1356 4.72 15.7996 3.2016 15.3511 1.9584H15.3526ZM16.4551 8H20.8742C21.041 9.05925 21.041 10.1408 20.8742 11.2H16.4551C16.5128 10.1342 16.5128 9.06578 16.4551 8ZM16.3231 12.8H20.4871C20.0184 14.2098 19.2481 15.4836 18.2373 16.5204C17.2265 17.5572 16.0031 18.3284 14.664 18.7728C14.9191 18.3168 15.1486 17.8 15.3496 17.2416C15.7996 15.9984 16.1341 14.48 16.3246 12.8H16.3231ZM12.903 18.6448C12.5385 19.072 12.2325 19.2 11.9985 19.2C11.7645 19.2 11.4585 19.072 11.094 18.6448C10.7295 18.2176 10.3665 17.5536 10.047 16.6672C9.66446 15.608 9.36445 14.2896 9.18595 12.8H14.811C14.631 14.288 14.331 15.608 13.95 16.6672C13.6305 17.5536 13.2675 18.2176 12.903 18.6448ZM3.51135 12.8C3.98005 14.2098 4.75038 15.4836 5.76118 16.5204C6.77199 17.5572 7.99545 18.3284 9.33445 18.7728C9.06524 18.2843 8.83589 17.772 8.64894 17.2416C8.19893 15.9984 7.86443 14.48 7.67393 12.8H3.51285H3.51135ZM7.54342 11.2H3.12435C2.95763 10.1407 2.95763 9.05926 3.12435 8H7.54342C7.48589 9.06578 7.48589 10.1342 7.54342 11.2ZM9.04495 8C8.98377 9.06567 8.98377 10.1343 9.04495 11.2H14.9551C15.0162 10.1343 15.0162 9.06567 14.9551 8H9.04495ZM2.24983 16H3.38235C3.75436 16.5696 4.17587 17.1008 4.63787 17.5872C4.59234 17.596 4.54614 17.6003 4.49987 17.6H2.83484L1.70982 22.4H22.2902L21.1652 17.6H19.5001C19.4539 17.6003 19.4077 17.596 19.3621 17.5872C19.8256 17.1005 20.2459 16.5692 20.6176 16H21.7502C21.9175 16 22.08 16.0598 22.2118 16.1696C22.3436 16.2795 22.4372 16.4333 22.4777 16.6064L23.9777 23.0064C24.0053 23.1243 24.0073 23.2474 23.9836 23.3662C23.96 23.4851 23.9112 23.5966 23.8411 23.6924C23.771 23.7882 23.6813 23.8657 23.5789 23.919C23.4765 23.9722 23.3641 24 23.2502 24H0.749806C0.635881 24 0.52346 23.9722 0.421076 23.919C0.318692 23.8657 0.229036 23.7882 0.158912 23.6924C0.088789 23.5966 0.0400413 23.4851 0.0163694 23.3662C-0.00730257 23.2474 -0.00527666 23.1243 0.0222932 23.0064L1.52232 16.6064C1.56281 16.4333 1.6564 16.2795 1.78823 16.1696C1.92005 16.0598 2.08253 16 2.24983 16Z" fill="black"/>
</svg>
